<?xml version="1.0" encoding="UTF-8"?>
<svg id="Layer_1" data-name="Layer 1" xmlns="http://www.w3.org/2000/svg" viewBox="0 0 1282.49 354.74">
  <defs>
    <style>
      .cls-1 {
        fill: #4652d3;
      }
    </style>
  </defs>
  <path class="cls-1" d="m313.04,273.58c-101.55,0-203.09-.05-304.64.11-6.14,0-8.46-1.41-8.4-8.07.32-34.24.28-68.48.03-102.71-.04-6.14,1.34-8.54,8.05-8.5,50.29.26,100.57.23,150.86.04,5.69-.02,7.85,1.58,7.62,7.42-.38,9.7-.38,19.43,0,29.13.23,5.71-1.65,7.69-7.46,7.66-35.22-.21-70.45.03-105.67-.27-5.65-.05-7.74,1.19-7.82,7.11-.3,23.12-.47,23.12,22.5,23.12,39.6,0,79.2-.14,118.79.12,6.21.04,8.03-1.98,7.95-7.93-.26-19.18.23-38.37-.28-57.54-.2-7.36,2.39-8.91,9.22-8.84,33.76.31,67.54.31,101.3-.01,6.62-.06,8.96,1.51,8.8,8.47-.45,19.17.03,38.37-.26,57.54-.09,5.9,1.64,8.28,7.8,8.3,20.9.08,20.9.25,20.9-20.48,0-15.54.17-31.09-.13-46.62-.11-5.47,1.83-7.31,7.18-7.17,10.44.28,20.9.31,31.33-.02,5.54-.17,7.04,1.96,6.96,7.26-.26,19.67.02,39.34-.21,59-.06,5.72,1.32,8.08,7.77,8.05,59.52-.25,119.04-.23,178.55,0,6.56.02,8.96-2.17,7.99-8.45-.11-.71-.02-1.45-.02-2.18q-.04-18.96-19.38-18.97c-45.91,0-91.83-.1-137.74.13-6.21.03-8.46-1.44-8.4-8.08.32-34.48.26-68.96.03-103.44-.04-5.85,1.93-7.49,7.59-7.47,64.86.15,129.73.17,194.59,0,6.18-.02,8.1,2.13,7.88,8.09-.37,9.94-.32,19.91,0,29.86.17,5.56-1.51,7.65-7.44,7.62-50.04-.22-100.09-.01-150.13-.3-6.63-.04-8.76,2.04-8.1,8.36.43,4.08.48,8.29.01,12.36-.74,6.4,1.59,8.45,8.08,8.41,43.24-.24,86.48-.13,129.73-.13,7.29,0,14.58.16,21.86-.07,4.4-.14,5.99,1.47,5.97,5.92-.12,35.69-.19,71.39.04,107.08.04,6.45-3.54,6.13-7.96,6.13-101.79-.05-203.58-.04-305.37-.04Zm-58.45-44.66c15.99.59,14.49,1.88,14.47-14.67,0-.48,0-.97,0-1.45.07-16.22.97-13.82-13.93-13.88q-15.17-.06-15.15,15.53.01,14.43,14.62,14.47Z"/>
  <path class="cls-1" d="m837.93,226.68c0-13.36.2-26.72-.1-40.07-.12-5.21,2.09-8.13,6.52-10.11,28.92-12.93,57.83-25.88,86.72-38.88,3.38-1.52,6.39-1.23,9.74.28,31.12,14.01,62.29,27.91,93.47,41.79,1.53.68,3.56.67,3.35,3.03-.2,2.27-1.99,3.02-3.87,3.83-14.88,6.4-29.76,12.8-44.54,19.44-2.26,1.02-6.11,1.48-6.15,4.26-.04,2.95,3.97,3.05,6.16,4.05,14.97,6.83,30.08,13.35,45.2,19.86,2.11.91,4.3,1.76,4.49,4.19.21,2.65-2.46,2.46-4.13,3.21-9.48,4.26-18.97,8.52-28.43,12.83-4.71,2.14-9.06,3.37-14.44.89-27.68-12.74-55.54-25.08-83.33-37.56-2.87-1.29-5.82-2.43-8.59-3.91-1.81-.96-4.93-.78-5.01-3.49-.07-2.65,2.92-3.02,4.75-3.86,11.65-5.37,23.38-10.54,35.09-15.8,1.76-.79,3.55-1.54,5.21-2.51,3.25-1.89,8.99-.68,9.08-6.47.03-2.19-13.64-6.34-16.61-5.04-16.39,7.19-32.72,14.53-49.09,21.78-3.08,1.36-3.12,4.06-3.13,6.75-.03,13.6.11,27.2-.09,40.8-.06,3.82,1.67,5.52,4.84,7.09,23.21,11.45,46.33,23.07,69.49,34.61,12.57,6.27,25.23,12.37,37.71,18.8,3.55,1.83,6.35,2.06,10.14.26,35.62-16.89,71.29-33.69,107.14-50.09,5.53-2.53,7.45-5.85,6.54-11.23-1.39-8.2,2.26-12.29,9.88-14.87,9.39-3.19,18.41-7.46,27.55-11.34,4.89-2.07,7.07-1.16,6.96,4.73-.28,14.57-.29,29.14.02,43.71.1,4.72-2.12,7.22-5.8,9.05-41.35,20.54-82.71,41.05-124.05,61.59-8.87,4.41-17.73,8.85-26.5,13.45-4.46,2.33-8.59,2.36-13.11.05-49.09-25.13-98.22-50.17-147.35-75.21-4.05-2.06-5.95-4.98-5.84-9.82.3-13.35.1-26.71.11-40.07Z"/>
  <path class="cls-1" d="m920.38,73.11c8.97,6.62,16.41,8.33,25.94,3.37,14.98-7.81,30.8-14.01,46.24-20.97,3.13-1.41,5.87-1.16,9,.27,20.24,9.2,40.57,18.21,60.87,27.29,2.21.99,5.18,1.79,5.45,4.32.36,3.35-3.38,2.86-5.34,3.8-9.37,4.47-19.17,8.11-28.24,13.11-9.8,5.41-16.9-1.43-24-4.97-9.55-4.77-17.29-5.26-26.94-.02-13.32,7.25-27.75,12.45-41.53,18.91-4.74,2.22-8.73,1.52-13.12-.46-28.88-13.02-57.8-25.95-86.71-38.91-.44-.2-.99-.22-1.36-.5-2.28-1.7-6.81-1.8-6.89-4.52-.1-3.51,4.42-3.93,7.13-5.14,28.89-12.95,57.9-25.66,86.75-38.69,5.74-2.6,10.72-2.93,16.5-.01,9.27,4.68,18.9,8.63,28.41,12.83,1.47.65,3.63.34,3.83,2.63.2,2.32-1.41,3.42-3.3,4.25-14.17,6.22-28.35,12.44-42.51,18.68-3.04,1.34-6.04,2.8-10.2,4.74Z"/>
  <path class="cls-1" d="m1182.11,121.71c-7.23.12-11.68,3.48-16.51,5.56-14.2,6.09-28.16,12.7-42.22,19.11-3.09,1.41-5.98,1.01-9.07-.39-20.04-9.03-40.14-17.95-60.24-26.86-1.52-.68-3.52-.72-3.71-2.89-.21-2.37,1.54-3.34,3.39-4.16,10.81-4.81,21.61-9.66,32.44-14.44,3.02-1.33,6.17-1.35,9.2,0,5.96,2.65,12,5.17,17.78,8.18,4.04,2.11,7.57,2.16,11.71.24,16.66-7.71,33.44-15.15,50.17-22.71,3.52-1.59,7.01-1.66,10.55-.06,30.87,13.86,61.74,27.7,92.59,41.59,1.64.74,4.36.64,4.3,3.16-.05,2.21-2.46,2.9-4.15,3.65-31.11,13.89-62.27,27.66-93.35,41.62-3.48,1.56-6.36,1.29-9.66-.22-10.77-4.93-21.62-9.69-32.46-14.47-1.53-.67-3.62-.84-3.25-3.14.35-2.16,2.35-2.93,4.14-3.71,11.74-5.13,23.5-10.22,35.23-15.38,4.2-1.85,8.42-3.68,12.47-5.84,2.74-1.46,3.65-3.53-.11-4.98-3.58-1.39-6.74-4.01-9.25-3.87Z"/>
  <path class="cls-1" d="m799.04,127.98c4.01,4.71,10.08,5.56,15.12,8.12,3.6,1.82,5.01,4.04,4.99,7.88-.08,17.96-.08,35.92,0,53.88.02,4.69-1.47,6.26-6.09,4.14-10.77-4.94-21.61-9.74-32.47-14.5-2.82-1.24-4.11-3.19-4.02-6.21.06-1.94.02-3.88.02-5.82.05-17.26-.02-17.1-16.05-23.88-15.15-6.4-30.15-13.15-45.18-19.83-1.7-.76-4.06-1.4-4.14-3.66-.1-2.68,2.69-2.31,4.3-3.04,30.61-13.85,61.25-27.64,91.87-41.46,3.48-1.57,6.96-2.08,10.55-.47,31.12,13.95,62.24,27.89,93.34,41.89,1.59.71,4.39.56,3.93,3.34-.35,2.11-2.64,2.74-4.35,3.52-10.78,4.92-21.6,9.74-32.41,14.59-3.11,1.39-5.99.86-9.06-.55-16.68-7.66-33.41-15.2-50.17-22.69-6.28-2.81-10.08-1.83-20.2,4.77Z"/>
  <path class="cls-1" d="m1115.33,90.94c-7.66-1.79-14.62-5.9-21.87-9.12-44.45-19.71-88.76-39.73-133.11-59.65-1.63-.73-4.43-.46-4.06-3.19.27-2.03,2.45-2.89,4.22-3.68,11.05-4.91,22.13-9.76,33.19-14.67,2.71-1.21,5.06-.46,7.63.68,40.01,17.75,80.07,35.41,120.11,53.1,10.6,4.68,21.19,9.37,31.81,14,1.39.61,2.77,1.18,3.1,2.76.34,1.63-.58,2.86-2.01,3.48-12.2,5.28-24.42,10.5-36.65,15.72-.66.28-1.4.35-2.36.58Z"/>
  <path class="cls-1" d="m1055.72,174.15c-7.53-3.24-15.32-6.51-23.04-9.94-23.61-10.5-47.21-21.05-70.78-31.65-2.35-1.06-5.87-1.68-5.86-4.71.01-2.83,3.66-2.74,5.71-3.7,10.51-4.92,21.16-9.51,31.71-14.35,2.41-1.11,4.34-1.08,6.83.04,29.29,13.22,58.69,26.18,87.92,39.54,3.01,1.37,8.5.23,8.71,5.05.24,5.46-5.75,4.2-8.82,5.8-8.56,4.47-17.56,8.13-26.41,12.03-1.76.77-3.68,1.18-5.95,1.89Z"/>
  <path class="cls-1" d="m42.12,112.09c-2.41-7.93,2.73-11.74,10.37-15.44,30.18-14.61,60.07-29.84,90.03-44.91,4.51-2.27,6.86-1.82,6.66,3.87-.76,21.43,4.28,15.9-17,26.69-27.54,13.95-55.31,27.44-82.92,41.24-6.58,3.29-7.06,3.15-7.12-4.32-.02-1.94,0-3.88,0-7.13Z"/>
  <path class="cls-1" d="m268.71,331.74c0-5.34.16-10.68-.06-16-.17-4.26,1.25-6.18,5.81-6.1,11.16.21,22.32.18,33.48,0,4.51-.07,5.93,1.86,5.86,6.13-.16,10.91-.13,21.83.01,32.74.06,4.74-1.99,6.34-6.64,6.23-10.67-.24-21.35-.26-32.02,0-4.71.11-6.67-1.51-6.48-6.26.22-5.57.05-11.15.05-16.73Z"/>
  <path class="cls-1" d="m365.57,309.68c5.33,0,10.67.14,16-.05,4.27-.15,6.16,1.4,6.09,5.88-.18,11.15-.15,22.3.01,33.44.07,4.56-2.09,5.84-6.26,5.78-10.91-.14-21.82-.15-32.73,0-5.05.07-6.9-2.22-6.82-7.08.16-10.42.2-20.85-.02-31.26-.11-5.13,2.11-6.93,7-6.75,5.57.21,11.15.05,16.73.04Z"/>
  <path class="cls-1" d="m1119.59,201.96c-3.73-.26-6.59-2.23-9.69-3.58-9.3-4.05-18.62-8.06-27.96-12.04-1.65-.7-3.1-1.52-3.32-3.46-.21-1.8,1.07-2.34,2.53-2.96,11.56-4.96,23.09-9.97,34.59-15.06,2.54-1.12,4.69-1.55,7.5-.26,11.64,5.34,23.44,10.34,35.18,15.45,3.71,1.61,2.78,4.1.27,5.25-12.53,5.73-25.23,11.1-37.88,16.56-.42.18-.96.08-1.22.1Z"/>
  <path class="cls-1" d="m1099.49,209.45c.11,2.42-1.54,2.61-2.81,3.19-12.06,5.5-24.13,11-36.19,16.51-1.92.88-3.74.64-5.58-.21-11.39-5.25-22.71-10.65-34.21-15.65-4.42-1.92-5.19-3.8-.68-5.92,11.99-5.65,24.12-11.02,36.26-16.34,1.17-.51,3-.32,4.22.22,11.91,5.27,23.76,10.67,35.61,16.09,1.27.58,2.38,1.49,3.38,2.12Z"/>
  <path class="cls-1" d="m291.04,81.65c5.34,0,10.69.27,16-.08,4.42-.29,6.25,1.27,6.2,5.69-.12,10.91-.1,21.82-.04,32.74.02,3.89-1.4,5.71-5.58,5.64-10.91-.18-21.84-.2-32.75.02-4.54.09-5.96-1.88-5.9-6.09.13-10.67.21-21.34,0-32.01-.09-4.51,1.77-6.03,6.05-5.87,5.33.2,10.67.05,16.01.05,0-.03,0-.05,0-.08Z"/>
  <path class="cls-1" d="m819.09,227.13c0,2.1-.04,3.79,0,5.48.13,4.24-2,5.14-5.52,3.62-10.61-4.59-21.21-9.19-31.76-13.92-4.49-2.01-7.64-16.14-4.59-19.93,1.6-1.98,3.58-1.18,5.3-.42,10.81,4.77,21.5,9.8,32.38,14.41,5.67,2.4,3.79,7.08,4.18,10.76Z"/>
</svg>